<svg width="1000" height="1000" xmlns="http://www.w3.org/2000/svg">
  <filter id="blur" x="0" y="0">
    <feGaussianBlur in="SourceGraphic" stdDeviation="20" />
  </filter>
  <g filter="url(#blur)">
    <!-- Swirly cloud patterns -->
    <path d="M100,100 Q200,50 300,150 T500,100 T700,150 T900,100" stroke="white" stroke-width="40" fill="none" opacity="0.7"/>
    <path d="M150,250 Q250,200 350,300 T550,250 T750,300 T950,250" stroke="white" stroke-width="50" fill="none" opacity="0.7"/>
    <path d="M50,400 Q150,350 250,450 T450,400 T650,450 T850,400" stroke="white" stroke-width="45" fill="none" opacity="0.7"/>
    <path d="M100,550 Q200,500 300,600 T500,550 T700,600 T900,550" stroke="white" stroke-width="55" fill="none" opacity="0.7"/>
    <path d="M150,700 Q250,650 350,750 T550,700 T750,750 T950,700" stroke="white" stroke-width="50" fill="none" opacity="0.7"/>
    <path d="M50,850 Q150,800 250,900 T450,850 T650,900 T850,850" stroke="white" stroke-width="45" fill="none" opacity="0.7"/>
    
    <!-- More dense central areas -->
    <circle cx="250" cy="150" r="90" fill="white" opacity="0.6"/>
    <circle cx="600" cy="130" r="110" fill="white" opacity="0.6"/>
    
    <circle cx="180" cy="320" r="100" fill="white" opacity="0.6"/>
    <circle cx="520" cy="290" r="95" fill="white" opacity="0.6"/>
    <circle cx="850" cy="330" r="105" fill="white" opacity="0.6"/>
    
    <circle cx="300" cy="450" r="85" fill="white" opacity="0.6"/>
    <circle cx="700" cy="480" r="95" fill="white" opacity="0.6"/>
    
    <circle cx="200" cy="600" r="110" fill="white" opacity="0.6"/>
    <circle cx="550" cy="620" r="100" fill="white" opacity="0.6"/>
    <circle cx="880" cy="580" r="90" fill="white" opacity="0.6"/>
    
    <circle cx="320" cy="750" r="105" fill="white" opacity="0.6"/>
    <circle cx="650" cy="730" r="95" fill="white" opacity="0.6"/>
    
    <circle cx="150" cy="870" r="80" fill="white" opacity="0.6"/>
    <circle cx="450" cy="900" r="90" fill="white" opacity="0.6"/>
    <circle cx="750" cy="880" r="100" fill="white" opacity="0.6"/>
  </g>
</svg> 