<svg width="1000" height="1000" xmlns="http://www.w3.org/2000/svg">
  <filter id="blur" x="0" y="0">
    <feGaussianBlur in="SourceGraphic" stdDeviation="10" />
  </filter>
  <g filter="url(#blur)">
    <ellipse cx="200" cy="200" rx="100" ry="80" fill="white" opacity="0.7"/>
    <ellipse cx="300" cy="180" rx="120" ry="90" fill="white" opacity="0.7"/>
    <ellipse cx="450" cy="220" rx="130" ry="100" fill="white" opacity="0.7"/>
    <ellipse cx="600" cy="170" rx="110" ry="85" fill="white" opacity="0.7"/>
    <ellipse cx="750" cy="210" rx="125" ry="95" fill="white" opacity="0.7"/>
    
    <ellipse cx="150" cy="350" rx="90" ry="70" fill="white" opacity="0.7"/>
    <ellipse cx="280" cy="380" rx="110" ry="85" fill="white" opacity="0.7"/>
    <ellipse cx="420" cy="330" rx="100" ry="75" fill="white" opacity="0.7"/>
    <ellipse cx="550" cy="370" rx="115" ry="90" fill="white" opacity="0.7"/>
    <ellipse cx="700" cy="340" rx="105" ry="80" fill="white" opacity="0.7"/>
    <ellipse cx="830" cy="380" rx="95" ry="75" fill="white" opacity="0.7"/>
    
    <ellipse cx="200" cy="500" rx="115" ry="90" fill="white" opacity="0.7"/>
    <ellipse cx="350" cy="520" rx="105" ry="80" fill="white" opacity="0.7"/>
    <ellipse cx="500" cy="490" rx="120" ry="95" fill="white" opacity="0.7"/>
    <ellipse cx="650" cy="530" rx="110" ry="85" fill="white" opacity="0.7"/>
    <ellipse cx="800" cy="500" rx="100" ry="75" fill="white" opacity="0.7"/>
    
    <ellipse cx="250" cy="650" rx="100" ry="80" fill="white" opacity="0.7"/>
    <ellipse cx="400" cy="680" rx="120" ry="90" fill="white" opacity="0.7"/>
    <ellipse cx="550" cy="640" rx="95" ry="75" fill="white" opacity="0.7"/>
    <ellipse cx="700" cy="670" rx="110" ry="85" fill="white" opacity="0.7"/>
    
    <ellipse cx="300" cy="800" rx="110" ry="85" fill="white" opacity="0.7"/>
    <ellipse cx="450" cy="780" rx="95" ry="75" fill="white" opacity="0.7"/>
    <ellipse cx="600" cy="810" rx="105" ry="80" fill="white" opacity="0.7"/>
    <ellipse cx="750" cy="790" rx="120" ry="90" fill="white" opacity="0.7"/>
  </g>
</svg> 