<svg width="1000" height="1000" xmlns="http://www.w3.org/2000/svg">
  <filter id="blur" x="0" y="0">
    <feGaussianBlur in="SourceGraphic" stdDeviation="15" />
  </filter>
  <g filter="url(#blur)">
    <path d="M100,200 C150,150 200,150 250,200 S350,300 400,250 S450,150 500,200 S550,300 600,250 S650,150 700,200 S750,300 800,250 S850,150 900,200" fill="white" opacity="0.6"/>
    <path d="M150,350 C200,300 250,300 300,350 S400,450 450,400 S500,300 550,350 S600,450 650,400 S700,300 750,350 S800,450 850,400" fill="white" opacity="0.6"/>
    <path d="M200,500 C250,450 300,450 350,500 S450,600 500,550 S550,450 600,500 S650,600 700,550 S750,450 800,500" fill="white" opacity="0.6"/>
    <path d="M250,650 C300,600 350,600 400,650 S500,750 550,700 S600,600 650,650 S700,750 750,700" fill="white" opacity="0.6"/>
    
    <ellipse cx="250" cy="210" rx="120" ry="70" fill="white" opacity="0.5"/>
    <ellipse cx="450" cy="180" rx="150" ry="80" fill="white" opacity="0.5"/>
    <ellipse cx="650" cy="220" rx="130" ry="75" fill="white" opacity="0.5"/>
    <ellipse cx="850" cy="190" rx="140" ry="85" fill="white" opacity="0.5"/>
    
    <ellipse cx="350" cy="380" rx="160" ry="90" fill="white" opacity="0.5"/>
    <ellipse cx="550" cy="420" rx="120" ry="70" fill="white" opacity="0.5"/>
    <ellipse cx="750" cy="390" rx="140" ry="80" fill="white" opacity="0.5"/>
    
    <ellipse cx="300" cy="580" rx="130" ry="75" fill="white" opacity="0.5"/>
    <ellipse cx="500" cy="550" rx="150" ry="85" fill="white" opacity="0.5"/>
    <ellipse cx="700" cy="590" rx="140" ry="80" fill="white" opacity="0.5"/>
    
    <ellipse cx="400" cy="720" rx="160" ry="90" fill="white" opacity="0.5"/>
    <ellipse cx="600" cy="680" rx="130" ry="75" fill="white" opacity="0.5"/>
  </g>
</svg> 