<?xml version="1.0" encoding="UTF-8" standalone="no"?>
<svg width="1920" height="1080" xmlns="http://www.w3.org/2000/svg">
  <defs>
    <linearGradient id="darkSkyGradient" x1="0%" y1="0%" x2="0%" y2="100%">
      <stop offset="0%" style="stop-color:#0F0B22;stop-opacity:1" />
      <stop offset="70%" style="stop-color:#2A1B4A;stop-opacity:1" />
      <stop offset="100%" style="stop-color:#331C4D;stop-opacity:1" />
    </linearGradient>
    
    <filter id="noise" x="0%" y="0%" width="100%" height="100%">
      <feTurbulence type="fractalNoise" baseFrequency="0.65" numOctaves="3" seed="5" />
      <feColorMatrix type="matrix" values="0 0 0 0 0 0 0 0 0 0 0 0 0 0 0 0 0 0 0.1 0" />
      <feComposite operator="in" in2="SourceGraphic" result="noisy" />
    </filter>
    
    <radialGradient id="moonGlow" cx="70%" cy="25%" r="10%" fx="70%" fy="25%">
      <stop offset="10%" style="stop-color:rgba(255,255,255,0.8)" />
      <stop offset="80%" style="stop-color:rgba(125,91,166,0.1)" />
      <stop offset="100%" style="stop-color:rgba(51,28,77,0)" />
    </radialGradient>
    
    <filter id="moonBlur">
      <feGaussianBlur in="SourceGraphic" stdDeviation="10" />
    </filter>
  </defs>
  
  <!-- Dark background -->
  <rect width="100%" height="100%" fill="url(#darkSkyGradient)" />
  
  <!-- Noise overlay for texture -->
  <rect width="100%" height="100%" fill="#211133" opacity="0.05" filter="url(#noise)" />
  
  <!-- Stars -->
  <g>
    <!-- Large distant stars -->
    <circle cx="200" cy="150" r="1.2" fill="white" opacity="0.7" />
    <circle cx="350" cy="80" r="1.4" fill="white" opacity="0.8" />
    <circle cx="500" cy="200" r="1" fill="white" opacity="0.6" />
    <circle cx="680" cy="120" r="1.3" fill="white" opacity="0.7" />
    <circle cx="750" cy="180" r="1.1" fill="white" opacity="0.7" />
    <circle cx="880" cy="90" r="1.5" fill="white" opacity="0.8" />
    <circle cx="1050" cy="220" r="1.2" fill="white" opacity="0.7" />
    <circle cx="1200" cy="170" r="1" fill="white" opacity="0.6" />
    <circle cx="1300" cy="120" r="1.3" fill="white" opacity="0.7" />
    <circle cx="1450" cy="200" r="1.4" fill="white" opacity="0.8" />
    <circle cx="1600" cy="150" r="1.1" fill="white" opacity="0.7" />
    <circle cx="1700" cy="80" r="1.2" fill="white" opacity="0.7" />
    
    <!-- Small distant stars -->
    <circle cx="150" cy="250" r="0.8" fill="white" opacity="0.5" />
    <circle cx="280" cy="180" r="0.7" fill="white" opacity="0.5" />
    <circle cx="420" cy="280" r="0.6" fill="white" opacity="0.5" />
    <circle cx="580" cy="220" r="0.7" fill="white" opacity="0.5" />
    <circle cx="650" cy="320" r="0.8" fill="white" opacity="0.5" />
    <circle cx="780" cy="190" r="0.6" fill="white" opacity="0.5" />
    <circle cx="950" cy="290" r="0.7" fill="white" opacity="0.5" />
    <circle cx="1100" cy="250" r="0.6" fill="white" opacity="0.5" />
    <circle cx="1250" cy="320" r="0.8" fill="white" opacity="0.5" />
    <circle cx="1350" cy="220" r="0.7" fill="white" opacity="0.5" />
    <circle cx="1500" cy="280" r="0.6" fill="white" opacity="0.5" />
    <circle cx="1650" cy="190" r="0.8" fill="white" opacity="0.5" />
    <circle cx="1780" cy="250" r="0.7" fill="white" opacity="0.5" />
    
    <!-- Constellation pattern - mysterious eye shape -->
    <circle cx="1200" cy="330" r="1.5" fill="white" opacity="0.9" />
    <circle cx="1150" cy="300" r="1.2" fill="white" opacity="0.8" />
    <circle cx="1100" cy="290" r="1.3" fill="white" opacity="0.85" />
    <circle cx="1050" cy="300" r="1.2" fill="white" opacity="0.8" />
    <circle cx="1000" cy="330" r="1.5" fill="white" opacity="0.9" />
    <circle cx="1050" cy="360" r="1.2" fill="white" opacity="0.8" />
    <circle cx="1100" cy="370" r="1.3" fill="white" opacity="0.85" />
    <circle cx="1150" cy="360" r="1.2" fill="white" opacity="0.8" />
    
    <line x1="1150" y1="300" x2="1200" y2="330" stroke="white" stroke-width="0.3" opacity="0.4" />
    <line x1="1100" y1="290" x2="1150" y2="300" stroke="white" stroke-width="0.3" opacity="0.4" />
    <line x1="1050" y1="300" x2="1100" y2="290" stroke="white" stroke-width="0.3" opacity="0.4" />
    <line x1="1000" y1="330" x2="1050" y2="300" stroke="white" stroke-width="0.3" opacity="0.4" />
    <line x1="1050" y1="360" x2="1000" y2="330" stroke="white" stroke-width="0.3" opacity="0.4" />
    <line x1="1100" y1="370" x2="1050" y2="360" stroke="white" stroke-width="0.3" opacity="0.4" />
    <line x1="1150" y1="360" x2="1100" y2="370" stroke="white" stroke-width="0.3" opacity="0.4" />
    <line x1="1200" y1="330" x2="1150" y2="360" stroke="white" stroke-width="0.3" opacity="0.4" />
  </g>
  
  <!-- Distant moonlight effect -->
  <circle cx="70%" cy="25%" r="80" fill="url(#moonGlow)" filter="url(#moonBlur)" />
  
  <!-- Faint misty mountains at bottom -->
  <path d="M0,850 Q480,750 960,830 Q1440,910 1920,850 L1920,1080 L0,1080 Z" fill="#1A0F2E" opacity="0.7" />
  <path d="M0,870 Q480,820 960,890 Q1440,960 1920,890 L1920,1080 L0,1080 Z" fill="#140A1F" opacity="0.8" />
  <path d="M0,890 Q480,930 960,950 Q1440,970 1920,940 L1920,1080 L0,1080 Z" fill="#0C0613" opacity="0.9" />
</svg> 